<svg width="16" height="16" viewBox="0 0 16 16" fill="none" xmlns="http://www.w3.org/2000/svg">
<path d="M8 0C3.58175 0 0 3.58175 0 8C0 12.4182 3.58175 16 8 16C12.4182 16 16 12.4182 16 8C15.9953 3.58371 12.4163 0.00474329 8 0ZM12.4446 11.6366C12.5931 11.78 12.6528 11.9925 12.6004 12.1922C12.5481 12.392 12.392 12.5481 12.1922 12.6004C11.9925 12.6528 11.78 12.5931 11.6366 12.4446L8 8.80804L4.36342 12.4446C4.13923 12.6611 3.78278 12.6581 3.56236 12.4376C3.34194 12.2172 3.33887 11.8608 3.55539 11.6366L7.19196 8L3.55539 4.36342C3.40695 4.22001 3.34724 4.00753 3.39955 3.80776C3.45187 3.60798 3.60798 3.45187 3.80776 3.39955C4.00753 3.34724 4.22001 3.40695 4.36342 3.55539L8 7.19196L11.6366 3.55539C11.8608 3.33887 12.2172 3.34194 12.4376 3.56236C12.6581 3.78278 12.6611 4.13923 12.4446 4.36342L8.80804 8L12.4446 11.6366Z" fill="#2CAC6E"/>
</svg>
