<svg width="16" height="16" viewBox="0 0 16 16" fill="none" xmlns="http://www.w3.org/2000/svg">
<path d="M16 12.875C16 13.2202 15.7202 13.5 15.375 13.5H13.5V15.375C13.5 15.7202 13.2202 16 12.875 16C12.5298 16 12.25 15.7202 12.25 15.375V13.5H10.375C10.0298 13.5 9.75 13.2202 9.75 12.875C9.75 12.5298 10.0298 12.25 10.375 12.25H12.25V10.375C12.25 10.0298 12.5298 9.75 12.875 9.75C13.2202 9.75 13.5 10.0298 13.5 10.375V12.25H15.375C15.7202 12.25 16 12.5298 16 12.875ZM11 15.375C11 15.7202 10.7202 16 10.375 16H1.875C0.841064 16 0 15.1589 0 14.125V12.9688C0 11.8901 0.462646 10.8652 1.26917 10.1566C1.92212 9.58276 3.17261 8.7323 5.18286 8.29028C4.08423 7.44397 3.375 6.11584 3.375 4.625C3.375 2.07483 5.44983 0 8 0C10.5502 0 12.625 2.07483 12.625 4.625C12.625 7.17517 10.5502 9.25 8 9.25C4.56555 9.25 2.72571 10.5406 2.09424 11.0956C1.55774 11.567 1.25 12.2496 1.25 12.9688V14.125C1.25 14.4696 1.5304 14.75 1.875 14.75H10.375C10.7202 14.75 11 15.0298 11 15.375ZM8 8C9.86096 8 11.375 6.48596 11.375 4.625C11.375 2.76404 9.86096 1.25 8 1.25C6.13904 1.25 4.625 2.76404 4.625 4.625C4.625 6.48596 6.13904 8 8 8Z" fill="#2CAC6E"/>
</svg>
