<svg width="12" height="8" viewBox="0 0 12 8" fill="none" xmlns="http://www.w3.org/2000/svg">
<mask id="path-1-outside-1" maskUnits="userSpaceOnUse" x="0" y="0.391174" width="12" height="7" fill="black">
<rect fill="white" y="0.391174" width="12" height="7"/>
<path d="M10.9364 1.45476C10.8516 1.36998 10.7138 1.36998 10.629 1.45476L6.00022 6.08399L1.37099 1.45521C1.28621 1.37043 1.14837 1.37043 1.06359 1.45521C0.978804 1.54 0.978804 1.67783 1.06359 1.76262L5.84631 6.54534C5.88892 6.5875 5.94456 6.60882 6.00022 6.60882C6.05588 6.60882 6.11152 6.58752 6.15371 6.54491L10.9364 1.76219C11.0212 1.67738 11.0212 1.53955 10.9364 1.45476Z"/>
</mask>
<path d="M10.9364 1.45476C10.8516 1.36998 10.7138 1.36998 10.629 1.45476L6.00022 6.08399L1.37099 1.45521C1.28621 1.37043 1.14837 1.37043 1.06359 1.45521C0.978804 1.54 0.978804 1.67783 1.06359 1.76262L5.84631 6.54534C5.88892 6.5875 5.94456 6.60882 6.00022 6.60882C6.05588 6.60882 6.11152 6.58752 6.15371 6.54491L10.9364 1.76219C11.0212 1.67738 11.0212 1.53955 10.9364 1.45476Z" fill="#5F9AE3"/>
<path d="M10.629 1.45476L10.2755 1.10121L10.2754 1.10123L10.629 1.45476ZM6.00022 6.08399L5.64669 6.43756L6.00026 6.7911L6.35379 6.43753L6.00022 6.08399ZM1.37099 1.45521L1.01744 1.80876L1.01746 1.80878L1.37099 1.45521ZM1.06359 1.76262L1.41714 1.40906L1.06359 1.76262ZM5.84631 6.54534L5.49275 6.89889L5.49463 6.90075L5.84631 6.54534ZM6.15371 6.54491L5.80015 6.19135L5.79838 6.19314L6.15371 6.54491ZM10.9364 1.76219L11.29 2.11574L11.2901 2.11566L10.9364 1.76219ZM11.29 1.10121C11.0099 0.821163 10.5555 0.821163 10.2755 1.10121L10.9826 1.80832C10.8721 1.91879 10.6933 1.91879 10.5829 1.80832L11.29 1.10121ZM10.2754 1.10123L5.64665 5.73046L6.35379 6.43753L10.9826 1.8083L10.2754 1.10123ZM6.35376 5.73042L1.72453 1.10164L1.01746 1.80878L5.64669 6.43756L6.35376 5.73042ZM1.72455 1.10166C1.4445 0.821611 0.990082 0.821611 0.710035 1.10166L1.41714 1.80876C1.30666 1.91924 1.12792 1.91924 1.01744 1.80876L1.72455 1.10166ZM0.710035 1.10166C0.429988 1.3817 0.429988 1.83612 0.710035 2.11617L1.41714 1.40906C1.52762 1.51954 1.52762 1.69829 1.41714 1.80876L0.710035 1.10166ZM0.710035 2.11617L5.49275 6.89889L6.19986 6.19178L1.41714 1.40906L0.710035 2.11617ZM5.49463 6.90075C5.63367 7.03833 5.81688 7.10882 6.00022 7.10882V6.10882C6.07225 6.10882 6.14418 6.13668 6.19799 6.18992L5.49463 6.90075ZM6.00022 7.10882C6.18331 7.10882 6.36877 7.03837 6.50905 6.89667L5.79838 6.19314C5.85428 6.13668 5.92846 6.10882 6.00022 6.10882V7.10882ZM6.50727 6.89846L11.29 2.11574L10.5829 1.40863L5.80016 6.19135L6.50727 6.89846ZM11.2901 2.11566C11.57 1.83563 11.57 1.38127 11.29 1.10121L10.5829 1.80832C10.4724 1.69782 10.4724 1.51914 10.5828 1.40872L11.2901 2.11566Z" fill="#5F9AE3" mask="url(#path-1-outside-1)"/>
</svg>
