<svg width="6" height="8" viewBox="0 0 6 8" fill="none" xmlns="http://www.w3.org/2000/svg">
<path d="M3 0C1.34578 0 0 1.3388 0 2.98442C0 5.43629 2.70139 7.83033 2.81643 7.93107C2.86887 7.977 2.93442 8 3 8C3.06558 8 3.13113 7.97702 3.1836 7.93107C3.29858 7.83036 6 5.43632 6 2.98442C6 1.3388 4.65422 0 3 0ZM3 2.14661C3.45951 2.14661 3.83334 2.52244 3.83334 2.98442C3.83334 3.4464 3.45951 3.82224 3 3.82224C2.54049 3.82224 2.16666 3.4464 2.16666 2.98442C2.16666 2.52244 2.54049 2.14661 3 2.14661Z" fill="#5F9AE3"/>
</svg>
