<svg width="14" height="15" viewBox="0 0 14 15" fill="none" xmlns="http://www.w3.org/2000/svg">
<g clip-path="url(#clip0)">
<path d="M9.17484 9.62153L9.17481 9.62152C8.88313 9.51755 8.57216 9.68791 8.47729 9.99343C8.3828 10.2977 8.53539 10.6302 8.82521 10.7335L9.17484 9.62153ZM9.17484 9.62153L12.1748 10.6929L9.17484 9.62153ZM0.450012 7.49997C0.450035 7.1798 0.693076 6.91429 1.00002 6.91429C1.30698 6.91429 1.55 7.17982 1.55 7.50001C1.55061 10.7302 3.99431 13.3423 7.00109 13.3417C8.50519 13.3414 9.94191 12.6746 10.9714 11.5002L8.82524 10.7336L8.84203 10.6865C8.5797 10.5929 8.43776 10.2893 8.52504 10.0083C8.61231 9.72719 8.8957 9.57511 9.15802 9.66862L12.158 10.74C12.3628 10.8131 12.5007 11.0188 12.5 11.25H12.55V11.2502V14.4643C12.55 14.7845 12.307 15.05 12 15.05C11.693 15.05 11.45 14.7845 11.45 14.4643V12.6297C8.85088 15.2313 4.77337 15.1307 2.2894 12.3818C1.10628 11.0724 0.446749 9.32109 0.450012 7.49997ZM0.450012 7.49997C0.450012 7.49999 0.450012 7.5 0.450012 7.50002H0.499879L0.450012 7.49993C0.450012 7.49994 0.450012 7.49996 0.450012 7.49997Z" fill="#2CAC6E" stroke="#2CAC6E" stroke-width="0.1"/>
<path d="M4.82516 5.8427L4.82519 5.84271C5.11687 5.94668 5.42784 5.77632 5.52271 5.4708C5.6172 5.16651 5.46461 4.83402 5.17479 4.73069L4.82516 5.8427ZM4.82516 5.8427L1.82517 4.77129L4.82516 5.8427ZM13.55 7.96426C13.55 8.28443 13.3069 8.54994 13 8.54994C12.693 8.54994 12.45 8.28441 12.45 7.96423C12.4494 4.73401 10.0057 2.12188 6.99891 2.12254C5.49481 2.12284 4.05809 2.7896 3.02859 3.96403L5.17476 4.73068L5.15797 4.77778C5.4203 4.87129 5.56224 5.17492 5.47496 5.45598C5.38769 5.73704 5.1043 5.88912 4.84198 5.79561L1.84198 4.72419C1.63719 4.65112 1.49929 4.44546 1.49997 4.21421L1.44997 4.21421L1.44997 4.21406L1.44997 0.999925C1.45 0.679768 1.69305 0.414232 2 0.414232C2.30696 0.414232 2.55001 0.67977 2.55001 0.999957L2.55001 2.83457C5.14912 0.232957 9.22663 0.333531 11.7106 3.08246C12.8937 4.3918 13.5533 6.14314 13.55 7.96426ZM13.55 7.96426C13.55 7.96425 13.55 7.96423 13.55 7.96422L13.5001 7.96422L13.55 7.96431C13.55 7.96429 13.55 7.96428 13.55 7.96426Z" fill="#2CAC6E" stroke="#2CAC6E" stroke-width="0.1"/>
</g>
<defs>
<clipPath id="clip0">
<rect width="14" height="15" transform="matrix(1 0 0 -1 0 15)" fill="white"/>
</clipPath>
</defs>
</svg>
