<svg width="19" height="19" viewBox="0 0 19 19" fill="none" xmlns="http://www.w3.org/2000/svg">
<g clip-path="url(#clip0)">
<path d="M15.0836 7.39357C14.7413 7.39172 14.4092 7.50214 14.1371 7.70579M15.0836 7.39357C15.0837 7.39357 15.0837 7.39357 15.0838 7.39357L15.0833 7.49357V7.39357H15.0836ZM15.0836 7.39357H15.11C16.0093 7.39357 16.7372 8.15637 16.7394 9.09454L16.7399 9.30758L14.1371 7.70579M14.1371 7.70579C13.8761 7.13086 13.3174 6.7253 12.6655 6.7253L12.6648 6.72531C12.2828 6.72799 11.916 6.86854 11.631 7.11877C11.3441 6.63647 10.8339 6.31486 10.2508 6.31486H10.2232C9.95064 6.31082 9.6835 6.38162 9.45015 6.51769V3.02502C9.45015 2.08495 8.71738 1.31211 7.81542 1.31211C6.91414 1.31211 6.18528 2.08475 6.18476 3.02383C6.18476 3.02384 6.18476 3.02386 6.18476 3.02387L6.17801 10.0477L5.94245 9.76159C5.94231 9.76142 5.94218 9.76125 5.94204 9.76108C5.56229 9.28855 5.00345 8.99518 4.39887 8.95087L4.39839 8.95084C3.80655 8.91031 3.22431 9.11581 2.78916 9.51912L2.43176 9.81525L2.43173 9.81527C2.27951 9.94147 2.23608 10.1566 2.32724 10.332L2.32725 10.332L5.82321 17.0519L5.82322 17.0519C6.47852 18.3108 7.72763 19.0999 9.08593 19.0999H13.0257H13.1257V19.0951C15.1381 19.0384 16.7429 17.2766 16.745 15.1348C16.7454 14.6072 16.7445 14.1574 16.7437 13.7628C16.7431 13.4418 16.7425 13.1574 16.7428 12.8975L14.1371 7.70579ZM15.8989 12.8951V12.8951L15.8989 12.8715C15.9009 11.3513 15.9017 10.7813 15.8978 9.09578C15.8967 8.60792 15.5359 8.2328 15.11 8.2328H15.0833C14.6536 8.2328 14.2843 8.60337 14.2843 9.09009V9.86478C14.2843 10.0965 14.0965 10.2844 13.8647 10.2844C13.633 10.2844 13.4451 10.0965 13.4451 9.86478V8.43416C13.4451 7.94174 13.092 7.56032 12.6676 7.56032C12.2402 7.56032 11.8872 7.9421 11.8872 8.43416V9.95062C11.8872 10.1824 11.6993 10.3702 11.4676 10.3702C11.2359 10.3702 11.048 10.1824 11.048 9.95062V8.01778C11.048 7.53006 10.6794 7.15409 10.2508 7.15409H10.2224C9.80508 7.15409 9.45015 7.5095 9.45015 7.97627V10.1523C9.45015 10.384 9.26226 10.5719 9.03053 10.5719C8.79879 10.5719 8.61091 10.384 8.61091 10.1523V8.03994L8.61066 8.03394L8.61063 8.0334C8.61045 8.02994 8.61013 8.02388 8.61013 8.01747C8.61013 8.00753 8.61035 7.99781 8.61054 7.98938L8.61055 7.98911C8.61075 7.98025 8.61091 7.97276 8.61091 7.9655V3.02502C8.61091 2.5356 8.24244 2.15119 7.81574 2.15119C7.38896 2.15119 7.02053 2.53523 7.02025 3.0243V3.02431L7.01447 11.2182L15.8989 12.8951ZM15.8989 12.8951C15.8987 13.0974 15.8984 13.3166 15.8981 13.5572C15.8976 14.0011 15.897 14.5178 15.8964 15.1354C15.8947 16.8641 14.5913 18.2605 13.007 18.2605H9.08609C8.04701 18.2605 7.0807 17.6496 6.56792 16.6643L3.22803 10.2465L3.33201 10.1597C3.33219 10.1596 3.33237 10.1594 3.33255 10.1593C3.33696 10.1556 3.3407 10.1522 3.34293 10.1502L3.34744 10.146L3.34747 10.146M15.8989 12.8951L3.34747 10.146M3.34747 10.146L3.34972 10.1439M3.34747 10.146L3.34972 10.1439M3.34972 10.1439C3.61606 9.89323 3.97442 9.76442 4.33934 9.78818C4.71299 9.81693 5.05773 9.99968 5.29144 10.2926L5.29143 10.2927M3.34972 10.1439L5.29143 10.2927M5.29143 10.2927L5.29235 10.2938M5.29143 10.2927L5.29235 10.2938M5.29235 10.2938L6.27061 11.4841L5.29235 10.2938Z" fill="#E5F0F9" stroke="#E5F0F9" stroke-width="0.2"/>
<path d="M10.7583 2.84309L10.7583 2.84346C10.7583 3.0752 10.5705 3.26308 10.3387 3.26308C10.1071 3.26308 9.91923 3.07531 9.91911 2.84368M10.7583 2.84309L10.0191 2.84346M10.7583 2.84309C10.7522 1.21584 9.43153 -0.1 7.80427 -0.1C6.17717 -0.1 4.85633 1.21583 4.8502 2.84309V2.84346C4.8502 3.0752 5.03808 3.26308 5.26981 3.26308C5.50141 3.26308 5.6892 3.07543 5.68943 2.84389M10.7583 2.84309L5.58943 2.84346M9.91911 2.84368C9.91911 2.84361 9.91911 2.84353 9.91911 2.84346H10.0191M9.91911 2.84368C9.91911 2.84375 9.91911 2.84382 9.91911 2.84389L10.0191 2.84346M9.91911 2.84368C9.91408 1.67921 8.96877 0.737985 7.80427 0.737985C6.63985 0.737985 5.69434 1.67933 5.68943 2.84389M10.0191 2.84346C10.014 1.62383 9.0239 0.637985 7.80427 0.637985C6.5848 0.637985 5.59458 1.62383 5.58943 2.84346M5.68943 2.84389C5.68943 2.84375 5.68943 2.84361 5.68943 2.84346H5.58943M5.68943 2.84389L5.58943 2.84346" fill="#E5F0F9" stroke="#E5F0F9" stroke-width="0.2"/>
</g>
<defs>
<clipPath id="clip0">
<rect width="19" height="19" fill="white"/>
</clipPath>
</defs>
</svg>
