<svg width="14" height="15" viewBox="0 0 14 15" fill="none" xmlns="http://www.w3.org/2000/svg">
<path d="M4.12891 10.6219H4.07891V10.6719V12.8594C4.07891 13.7917 4.83722 14.55 5.76953 14.55H12.3594C13.2917 14.55 14.05 13.7917 14.05 12.8594V2.14063C14.05 1.20832 13.2917 0.45 12.3594 0.45L5.76953 0.45C4.83722 0.45 4.07891 1.20832 4.07891 2.14062V4.32812V4.37812H4.12891H5.22266H5.27266V4.32812V2.14062C5.27266 1.86671 5.49562 1.64375 5.76953 1.64375L12.3594 1.64375C12.6333 1.64375 12.8562 1.86671 12.8562 2.14063V12.8594C12.8562 13.1333 12.6333 13.3562 12.3594 13.3562H5.76953C5.49562 13.3562 5.27266 13.1333 5.27266 12.8594V10.6719V10.6219H5.22266H4.12891ZM5.78107 9.26933L5.74571 9.30469L5.78107 9.34004L6.55449 10.1135L6.58984 10.1488L6.6252 10.1135L9.20331 7.53536L9.23866 7.5L9.20331 7.46464L6.6252 4.88653L6.58984 4.85118L6.55449 4.88653L5.78107 5.65996L5.74571 5.69531L5.78107 5.73067L6.95352 6.90312H0H-0.05V6.95312L-0.05 8.04688V8.09688H0H6.95352L5.78107 9.26933Z" fill="white" stroke="white" stroke-width="0.1"/>
</svg>
