<svg width="16" height="17" viewBox="0 0 16 17" fill="none" xmlns="http://www.w3.org/2000/svg">
<path d="M14.7556 4.68464H13.0586V1.59792C13.0586 1.30339 12.8198 1.06458 12.5253 1.06458H3.47475C3.18022 1.06458 2.94141 1.30336 2.94141 1.59792V4.68464H1.24444C0.55825 4.68464 0 5.24292 0 5.92911V11.2948C0 11.981 0.55825 12.5392 1.24444 12.5392H2.9415V15.4022C2.9415 15.6967 3.18028 15.9355 3.47484 15.9355H12.5252C12.8197 15.9355 13.0585 15.6967 13.0585 15.4022V12.5392H14.7556C15.4418 12.5392 16 11.981 16 11.2948V5.92911C16 5.24295 15.4418 4.68464 14.7556 4.68464ZM4.00806 2.13126H11.9919V4.68464H4.00806V2.13126ZM11.9918 14.8688H4.00819V10.5055H11.9918L11.9918 14.8688ZM14.9333 11.2948C14.9333 11.3929 14.8536 11.4726 14.7556 11.4726H13.0585V9.97217C13.0585 9.67764 12.8197 9.43883 12.5252 9.43883H3.47484C3.18031 9.43883 2.9415 9.67761 2.9415 9.97217V11.4726H1.24444C1.14641 11.4726 1.06666 11.3929 1.06666 11.2948V5.92914C1.06666 5.83111 1.14641 5.75136 1.24444 5.75136H14.7556C14.8536 5.75136 14.9333 5.83111 14.9333 5.92914V11.2948Z" fill="#2CAC6E"/>
<path d="M14.7556 4.68464H13.0586V1.59792C13.0586 1.30339 12.8198 1.06458 12.5253 1.06458H3.47475C3.18022 1.06458 2.94141 1.30336 2.94141 1.59792V4.68464H1.24444C0.55825 4.68464 0 5.24292 0 5.92911V11.2948C0 11.981 0.55825 12.5392 1.24444 12.5392H2.9415V15.4022C2.9415 15.6967 3.18028 15.9355 3.47484 15.9355H12.5252C12.8197 15.9355 13.0585 15.6967 13.0585 15.4022V12.5392H14.7556C15.4418 12.5392 16 11.981 16 11.2948V5.92911C16 5.24295 15.4418 4.68464 14.7556 4.68464ZM4.00806 2.13126H11.9919V4.68464H4.00806V2.13126ZM11.9918 14.8688H4.00819V10.5055H11.9918L11.9918 14.8688ZM14.9333 11.2948C14.9333 11.3929 14.8536 11.4726 14.7556 11.4726H13.0585V9.97217C13.0585 9.67764 12.8197 9.43883 12.5252 9.43883H3.47484C3.18031 9.43883 2.9415 9.67761 2.9415 9.97217V11.4726H1.24444C1.14641 11.4726 1.06666 11.3929 1.06666 11.2948V5.92914C1.06666 5.83111 1.14641 5.75136 1.24444 5.75136H14.7556C14.8536 5.75136 14.9333 5.83111 14.9333 5.92914V11.2948Z" stroke="white"/>
<path d="M12.5252 6.74963H11.1676C10.8731 6.74963 10.6343 6.98841 10.6343 7.28298C10.6343 7.57754 10.8731 7.81632 11.1676 7.81632H12.5252C12.8197 7.81632 13.0586 7.57754 13.0586 7.28298C13.0586 6.98841 12.8198 6.74963 12.5252 6.74963Z" fill="#2CAC6E"/>
<path d="M12.5252 6.74963H11.1676C10.8731 6.74963 10.6343 6.98841 10.6343 7.28298C10.6343 7.57754 10.8731 7.81632 11.1676 7.81632H12.5252C12.8197 7.81632 13.0586 7.57754 13.0586 7.28298C13.0586 6.98841 12.8198 6.74963 12.5252 6.74963Z" stroke="white"/>
<path d="M10.3109 12.9948H5.68862C5.39409 12.9948 5.15527 13.2336 5.15527 13.5282C5.15527 13.8227 5.39405 14.0615 5.68862 14.0615H10.3108C10.6054 14.0615 10.8442 13.8227 10.8442 13.5282C10.8442 13.2336 10.6054 12.9948 10.3109 12.9948Z" fill="#2CAC6E"/>
<path d="M10.3109 12.9948H5.68862C5.39409 12.9948 5.15527 13.2336 5.15527 13.5282C5.15527 13.8227 5.39405 14.0615 5.68862 14.0615H10.3108C10.6054 14.0615 10.8442 13.8227 10.8442 13.5282C10.8442 13.2336 10.6054 12.9948 10.3109 12.9948Z" stroke="white"/>
<path d="M10.3109 11.3127H5.68862C5.39409 11.3127 5.15527 11.5515 5.15527 11.846C5.15527 12.1406 5.39405 12.3794 5.68862 12.3794H10.3108C10.6054 12.3794 10.8442 12.1406 10.8442 11.846C10.8442 11.5515 10.6054 11.3127 10.3109 11.3127Z" fill="#2CAC6E"/>
<path d="M10.3109 11.3127H5.68862C5.39409 11.3127 5.15527 11.5515 5.15527 11.846C5.15527 12.1406 5.39405 12.3794 5.68862 12.3794H10.3108C10.6054 12.3794 10.8442 12.1406 10.8442 11.846C10.8442 11.5515 10.6054 11.3127 10.3109 11.3127Z" stroke="white"/>
</svg>
