<svg width="16" height="17" viewBox="0 0 16 17" fill="none" xmlns="http://www.w3.org/2000/svg">
<g clip-path="url(#clip0)">
<path d="M14.356 4.65397L10.3394 0.637313C10.2515 0.549406 10.1323 0.5 10.008 0.5H3.22983C2.27923 0.5 1.50586 1.27338 1.50586 2.22394V14.776C1.50586 15.7266 2.27923 16.5 3.2298 16.5H12.7694C13.72 16.5 14.4934 15.7266 14.4934 14.776V4.98541C14.4934 4.86109 14.444 4.74188 14.356 4.65397ZM10.4767 2.10041L12.8929 4.51666H11.2632C10.8295 4.51666 10.4767 4.16384 10.4767 3.73019V2.10041ZM12.7694 15.5625H3.2298C2.79617 15.5625 2.44336 15.2097 2.44336 14.776V2.22394C2.44336 1.79031 2.79617 1.4375 3.2298 1.4375H9.53917V3.73019C9.53917 4.68078 10.3125 5.45416 11.2631 5.45416H13.5559V14.776C13.5559 15.2097 13.2031 15.5625 12.7694 15.5625Z" fill="#2CAC6E"/>
<path d="M5.99174 7.52917H3.9834C3.72452 7.52917 3.51465 7.73905 3.51465 7.99792V10.0063C3.51465 10.2651 3.72452 10.475 3.9834 10.475H5.99174C6.25062 10.475 6.46049 10.2651 6.46049 10.0063V7.99789C6.46049 7.73902 6.25065 7.52917 5.99174 7.52917ZM5.52299 9.53751H4.45215V8.46664H5.52299V9.53751Z" fill="#2CAC6E"/>
<path d="M5.99174 11.5458H3.9834C3.72452 11.5458 3.51465 11.7557 3.51465 12.0146V14.0229C3.51465 14.2818 3.72452 14.4917 3.9834 14.4917H5.99174C6.25062 14.4917 6.46049 14.2818 6.46049 14.0229V12.0146C6.46049 11.7557 6.25065 11.5458 5.99174 11.5458ZM5.52299 13.5541H4.45215V12.4833H5.52299V13.5541Z" fill="#2CAC6E"/>
<path d="M7.53125 7.99792C7.53125 8.2568 7.74112 8.46667 8 8.46667H10.0083C10.2672 8.46667 10.4771 8.2568 10.4771 7.99792C10.4771 7.73905 10.2672 7.52917 10.0083 7.52917H8C7.74112 7.52917 7.53125 7.73902 7.53125 7.99792Z" fill="#2CAC6E"/>
<path d="M12.0167 9.53754H8C7.74112 9.53754 7.53125 9.74741 7.53125 10.0063C7.53125 10.2652 7.74112 10.475 8 10.475H12.0167C12.2755 10.475 12.4854 10.2652 12.4854 10.0063C12.4854 9.74741 12.2755 9.53754 12.0167 9.53754Z" fill="#2CAC6E"/>
<path d="M8 12.4833H10.0083C10.2672 12.4833 10.4771 12.2735 10.4771 12.0146C10.4771 11.7557 10.2672 11.5458 10.0083 11.5458H8C7.74112 11.5458 7.53125 11.7557 7.53125 12.0146C7.53125 12.2735 7.74112 12.4833 8 12.4833Z" fill="#2CAC6E"/>
<path d="M12.0167 13.5541H8C7.74112 13.5541 7.53125 13.764 7.53125 14.0229C7.53125 14.2818 7.74112 14.4916 8 14.4916H12.0167C12.2755 14.4916 12.4854 14.2818 12.4854 14.0229C12.4854 13.764 12.2755 13.5541 12.0167 13.5541Z" fill="#2CAC6E"/>
<path d="M3.9834 3.94788H6.4938C6.75267 3.94788 6.96255 3.738 6.96255 3.47913C6.96255 3.22025 6.75267 3.01038 6.4938 3.01038H3.9834C3.72452 3.01038 3.51465 3.22025 3.51465 3.47913C3.51465 3.738 3.72452 3.94788 3.9834 3.94788Z" fill="#2CAC6E"/>
<path d="M3.9834 5.9563H8.00005C8.25893 5.9563 8.4688 5.74642 8.4688 5.48755C8.4688 5.22867 8.25893 5.0188 8.00005 5.0188H3.9834C3.72452 5.0188 3.51465 5.22867 3.51465 5.48755C3.51465 5.74642 3.72452 5.9563 3.9834 5.9563Z" fill="#2CAC6E"/>
</g>
<defs>
<clipPath id="clip0">
<rect y="0.5" width="16" height="16" fill="white"/>
</clipPath>
</defs>
</svg>
