<svg width="16" height="17" viewBox="0 0 16 17" fill="none" xmlns="http://www.w3.org/2000/svg">
<path d="M4.14375 9.3125C4.14375 7.18621 5.87371 5.45625 8 5.45625C10.1263 5.45625 11.8562 7.18621 11.8562 9.3125C11.8562 11.4388 10.1263 13.1687 8 13.1687C5.87371 13.1687 4.14375 11.4388 4.14375 9.3125ZM5.29375 9.3125C5.29375 10.8048 6.50773 12.0188 8 12.0188C9.49227 12.0188 10.7063 10.8048 10.7063 9.3125C10.7063 7.82023 9.49227 6.60625 8 6.60625C6.50773 6.60625 5.29375 7.82023 5.29375 9.3125Z" fill="#5F9AE3" stroke="#5F9AE3" stroke-width="0.1"/>
<path d="M11.6085 3.44877L11.6085 3.44878L11.6094 3.45053C11.6518 3.53122 11.7344 3.58125 11.8258 3.58125H14.125C15.1313 3.58125 15.95 4.39999 15.95 5.40625V13.8438C15.95 14.85 15.1313 15.6687 14.125 15.6687H1.875C0.868739 15.6687 0.05 14.85 0.05 13.8438V5.40625C0.05 4.39999 0.868739 3.58125 1.875 3.58125H4.21875C4.31012 3.58125 4.39271 3.53123 4.43509 3.45065L4.43513 3.45067L4.43599 3.44886L5.07207 2.11224L5.07212 2.11214L5.07688 2.10242L5.07704 2.10211C5.31478 1.62652 5.79253 1.33125 6.32425 1.33125H9.72028C10.252 1.33125 10.7297 1.62652 10.9675 2.10208L10.9677 2.10238L10.9724 2.11211L10.9725 2.11221L11.6085 3.44877ZM5.46612 3.96014L5.46597 3.96045C5.22819 4.43601 4.75044 4.73125 4.21875 4.73125H1.875C1.50276 4.73125 1.2 5.03401 1.2 5.40625V13.8437C1.2 14.216 1.50276 14.5187 1.875 14.5187H14.125C14.4972 14.5187 14.8 14.216 14.8 13.8437V5.40622C14.8 5.03398 14.4972 4.73122 14.125 4.73122H11.8258C11.2941 4.73122 10.8163 4.43598 10.5786 3.96042L10.5784 3.96012L10.5736 3.95036L10.5734 3.94994L9.93749 2.61364L9.93753 2.61362L9.9366 2.61186C9.89425 2.53127 9.81165 2.48125 9.72028 2.48125H6.32425C6.23288 2.48125 6.15028 2.53128 6.10792 2.6119L6.10789 2.61189L6.10704 2.61367L5.47111 3.94997L5.47091 3.95039L5.46612 3.96014Z" fill="#5F9AE3" stroke="#5F9AE3" stroke-width="0.1"/>
<path d="M12.3 7.23125V6.08125H13.45V7.23125H12.3Z" fill="#5F9AE3" stroke="#5F9AE3" stroke-width="0.1"/>
</svg>
