<svg width="21" height="12" viewBox="0 0 21 12" fill="none" xmlns="http://www.w3.org/2000/svg">
<path d="M8.07497 4.77569C9.12562 4.77569 9.97734 3.92992 9.97734 2.8866C9.97734 1.84328 9.12562 0.997498 8.07497 0.997498C7.02433 0.997498 6.17261 1.84328 6.17261 2.8866C6.17261 3.92992 7.02433 4.77569 8.07497 4.77569Z" stroke="#5F9AE3" stroke-miterlimit="10"/>
<path d="M18.0976 4.77569C19.1482 4.77569 19.9999 3.92992 19.9999 2.8866C19.9999 1.84328 19.1482 0.997498 18.0976 0.997498C17.0469 0.997498 16.1952 1.84328 16.1952 2.8866C16.1952 3.92992 17.0469 4.77569 18.0976 4.77569Z" stroke="#5F9AE3" stroke-miterlimit="10"/>
<path d="M2.90237 11.1221C3.95302 11.1221 4.80474 10.2764 4.80474 9.23303C4.80474 8.18971 3.95302 7.34393 2.90237 7.34393C1.85172 7.34393 1 8.18971 1 9.23303C1 10.2764 1.85172 11.1221 2.90237 11.1221Z" stroke="#5F9AE3" stroke-miterlimit="10"/>
<path d="M12.9754 11.1221C14.026 11.1221 14.8777 10.2764 14.8777 9.23303C14.8777 8.18971 14.026 7.34393 12.9754 7.34393C11.9247 7.34393 11.073 8.18971 11.073 9.23303C11.073 10.2764 11.9247 11.1221 12.9754 11.1221Z" stroke="#5F9AE3" stroke-miterlimit="10"/>
<path d="M3.95752 7.6599L6.91924 4.38898" stroke="#5F9AE3" stroke-miterlimit="10"/>
<path d="M9.22925 4.38898L11.9202 7.6599" stroke="#5F9AE3" stroke-miterlimit="10"/>
<path d="M16.9433 4.38898L14.0291 7.6599" stroke="#5F9AE3" stroke-miterlimit="10"/>
</svg>
