<svg width="8" height="16" viewBox="0 0 8 16" fill="none" xmlns="http://www.w3.org/2000/svg">
<path d="M3.0625 16C1.51169 16 0.25 14.7383 0.25 13.1875V3.75C0.25 1.68225 1.93225 0 4 0C6.06775 0 7.75 1.68225 7.75 3.75V13.1875H6.8125V3.75C6.8125 2.19919 5.55081 0.9375 4 0.9375C2.44919 0.9375 1.1875 2.19919 1.1875 3.75V13.1875C1.1875 14.2214 2.02863 15.0625 3.0625 15.0625C4.09637 15.0625 4.9375 14.2214 4.9375 13.1875V5.625C4.9375 5.10806 4.51694 4.6875 4 4.6875C3.48306 4.6875 3.0625 5.10806 3.0625 5.625V13.1875H2.125V5.625C2.125 4.59113 2.96613 3.75 4 3.75C5.03387 3.75 5.875 4.59113 5.875 5.625V13.1875C5.875 14.7383 4.61331 16 3.0625 16Z" fill="#2CAC6E"/>
</svg>
