<svg width="128" height="50" viewBox="0 0 128 50" fill="none" xmlns="http://www.w3.org/2000/svg">
<path fill-rule="evenodd" clip-rule="evenodd" d="M0.312733 42.4536L14.5128 17.8277C17.4329 12.0868 22.368 11.7342 25.5403 17.6766L33.0933 31.2743C37.3733 38.7272 39.9412 39.4324 43.9696 32.0291L52.127 18.1296C55.9887 11.4902 59.8478 11.7577 63.7062 17.6625L80.9357 48.2066C75.5018 49.648 70.1451 49.1386 66.9315 44.267L60.8887 33.49C58.6055 28.681 56.8113 29.9848 55.1989 33.087L49.8617 42.1522C44.977 50.9147 33.9457 51.4543 28.2604 43.0582L23.166 33.6802C20.9253 29.5542 19.1454 29.278 17.0251 33.2459C15.0677 36.909 13.0728 40.4917 11.038 44.1159C7.02964 52.2666 -1.76158 48.6663 0.312733 42.4536ZM127.153 5.56449C127.153 8.63796 124.661 11.1294 121.589 11.1294C118.516 11.1294 116.024 8.63796 116.024 5.56449C116.025 2.49139 118.515 0 121.589 0C124.661 0 127.153 2.49139 127.153 5.56449ZM127.191 18.1296C127.191 15.3554 124.942 13.1062 122.168 13.1062C119.395 13.1062 117.146 15.3554 117.146 18.1296V34.0687C117.146 34.8268 116.972 36.0242 116.32 36.9444L121.989 46.9936C125.592 44.6383 126.835 43.21 127.286 37.431L127.191 18.1296ZM102.236 17.9882L101.977 17.5755C98.8039 11.6331 93.3663 11.9353 90.4458 17.6763C85.3996 26.4807 80.4977 36.1056 78.0821 37.1362L83.6998 47.0954C88.4286 44.3898 89.7933 40.7335 92.7627 34.5974C95.3007 28.8161 96.79 29.4609 99.6101 34.8996L104.696 42.9574C108.365 48.3759 114.256 50.0539 119.289 48.2197L102.236 17.9882Z" fill="#5F9AE3"/>
</svg>
