<svg width="53" height="26" viewBox="0 0 53 26" fill="none" xmlns="http://www.w3.org/2000/svg">
<path d="M18.9455 2.96517C17.0484 1.68481 14.8161 1.00053 12.5316 1L1.00017 12.552C0.98777 14.8499 1.65222 17.1005 2.91024 19.0186C4.16838 20.9368 5.96389 22.4366 8.07018 23.3265C10.1766 24.2165 12.4981 24.4561 14.7402 24.0147C16.9822 23.5732 19.0427 22.4709 20.6609 20.8487C22.2791 19.2265 23.3822 17.1575 23.8318 14.9044C24.2814 12.6513 24.0575 10.3143 23.1881 8.18918C22.3187 6.06399 20.8426 4.24552 18.9455 2.96517ZM12.5313 1C9.48128 0.998586 6.55646 2.21508 4.39614 4.38076C2.2361 6.54618 1.01602 9.4842 1.00017 12.5517L12.5313 1Z" fill="#C1CCD7" stroke="white" stroke-width="2"/>
<path d="M10.5049 12.1112C10.369 12.094 10.2435 12.0288 10.1508 11.9271C9.80952 11.5831 9.46729 11.2397 9.12406 10.897C9.02486 10.797 9.02486 10.797 8.93062 10.897C8.58739 11.2441 8.24516 11.5971 7.90094 11.9391C7.58747 12.2542 7.14703 12.1392 7.03196 11.7061C7.01325 11.6301 7.01508 11.5504 7.03723 11.4753C7.05938 11.4002 7.10106 11.3324 7.15794 11.2791C7.25218 11.179 7.35634 11.079 7.45554 10.979C7.71643 10.714 7.97534 10.448 8.2402 10.1869C8.30864 10.1189 8.30468 10.0749 8.2402 10.0099C7.88606 9.65988 7.53489 9.30985 7.18373 8.95181C7.11551 8.8955 7.06489 8.82051 7.03797 8.73588C7.01104 8.65124 7.00895 8.56056 7.03196 8.47475C7.05604 8.37664 7.10802 8.28775 7.1815 8.219C7.25498 8.15025 7.34678 8.10462 7.44562 8.08771C7.52548 8.07363 7.60759 8.0807 7.68393 8.10823C7.76026 8.13575 7.82821 8.18279 7.8811 8.24473L8.9088 9.27384C9.02486 9.39085 9.02486 9.39185 9.13993 9.27384C9.4782 8.9308 9.81547 8.58677 10.1557 8.24673C10.2115 8.18363 10.2824 8.13601 10.3616 8.10842C10.4408 8.08083 10.5258 8.0742 10.6083 8.08915C10.6908 8.1041 10.7681 8.14013 10.8329 8.19381C10.8976 8.24749 10.9476 8.31702 10.9781 8.39575C11.0201 8.48928 11.0309 8.59401 11.0089 8.69425C10.9869 8.7945 10.9333 8.88486 10.8561 8.95181C10.5168 9.29784 10.1746 9.64288 9.83432 9.98792C9.72917 10.0949 9.72917 10.0949 9.83432 10.1989C10.1845 10.549 10.5357 10.899 10.8838 11.2501C10.9594 11.3169 11.0113 11.4068 11.0315 11.5061C11.0518 11.6054 11.0393 11.7086 10.9959 11.8001C10.9513 11.8932 10.8815 11.9717 10.7947 12.0267C10.7079 12.0817 10.6075 12.111 10.5049 12.1112Z" fill="white"/>
<path d="M14.042 11.598C14.0453 11.5301 14.062 11.4636 14.0911 11.4023C14.1203 11.341 14.1612 11.2861 14.2116 11.241L15.2344 10.2059C15.3474 10.0919 15.3484 10.0919 15.2344 9.97385C14.8941 9.63281 14.5558 9.28977 14.2116 8.95274C14.1405 8.89187 14.0886 8.81127 14.0625 8.72094C14.0364 8.63062 14.0372 8.53455 14.0648 8.44468C14.0905 8.35029 14.1431 8.26557 14.2161 8.20104C14.2891 8.1365 14.3793 8.09499 14.4755 8.08164C14.5538 8.06853 14.6341 8.07569 14.7089 8.10245C14.7837 8.12922 14.8505 8.17471 14.903 8.23466L15.9446 9.27977C16.0488 9.37978 16.0488 9.37978 16.1539 9.27977C16.4942 8.93573 16.8404 8.5947 17.1747 8.24366C17.233 8.17821 17.3074 8.12943 17.3903 8.10223C17.4733 8.07503 17.5619 8.07037 17.6473 8.08874C17.7326 8.1071 17.8116 8.14782 17.8763 8.20681C17.941 8.26579 17.9892 8.34094 18.0159 8.42468C18.0484 8.51283 18.0538 8.60878 18.0315 8.70009C18.0092 8.7914 17.9602 8.87385 17.8909 8.93673C17.6211 9.21076 17.3493 9.48479 17.0785 9.75882C16.9941 9.84483 16.9118 9.93284 16.8235 10.0149C16.763 10.0719 16.771 10.1149 16.8235 10.1669C17.1826 10.5229 17.5368 10.8839 17.8969 11.239C17.9547 11.2943 17.9984 11.3629 18.0243 11.4389C18.0503 11.5149 18.0577 11.596 18.0459 11.6755C18.0341 11.755 18.0035 11.8304 17.9567 11.8955C17.9098 11.9605 17.8482 12.0132 17.7768 12.0491C17.5784 12.1591 17.38 12.1271 17.1965 11.9491L16.147 10.8979C16.0478 10.7979 16.0478 10.7979 15.9486 10.8979C15.6034 11.248 15.2575 11.598 14.911 11.9481C14.6203 12.2391 14.2166 12.1481 14.0698 11.763C14.0558 11.709 14.0465 11.6537 14.042 11.598Z" fill="white"/>
<path d="M12.5144 16.1625C13.5124 16.1625 14.5093 16.1625 15.5063 16.1625C15.9785 16.1625 16.1094 16.5956 15.9814 16.8846C15.9411 16.9753 15.8735 17.051 15.7883 17.101C15.7031 17.1511 15.6045 17.173 15.5063 17.1636H14.1175C12.607 17.1636 11.0962 17.1636 9.58511 17.1636C9.47193 17.1616 9.36042 17.1357 9.25775 17.0876C9.07622 17.0036 8.99487 16.7816 9.03158 16.5446C9.04774 16.4522 9.09175 16.3671 9.15761 16.3009C9.22347 16.2347 9.30797 16.1906 9.3996 16.1745C9.4704 16.1627 9.54212 16.1573 9.61387 16.1585H12.5125L12.5144 16.1625Z" fill="white"/>
<path d="M19.316 22.2667C21.2135 23.5467 23.4461 24.2304 25.7308 24.2303L25.731 23.2303C28.5135 23.2309 31.1831 22.1206 33.156 20.1423C35.1289 18.1639 36.2445 15.4785 36.2589 12.6732L37.2589 12.6786C37.2589 12.6785 37.2589 12.6784 37.2589 12.6783C37.2713 10.3802 36.6068 8.12955 35.3486 6.21141C34.0903 4.2931 32.2946 2.79335 30.1882 1.9035C28.0816 1.01363 25.7599 0.774178 23.5177 1.21588C21.2756 1.65757 19.2151 2.76022 17.597 4.3828C15.979 6.00529 14.8761 8.07457 14.4269 10.3279C13.9777 12.5812 14.2021 14.9184 15.0719 17.0434C15.9418 19.1685 17.4185 20.9868 19.316 22.2667Z" fill="#C1CCD7" stroke="white" stroke-width="2"/>
<path d="M25.7351 16.1426C24.4158 16.1426 23.0964 16.1426 21.7771 16.1426C21.6951 16.1494 21.6126 16.1365 21.5365 16.1049C21.4604 16.0732 21.3929 16.0237 21.3396 15.9605C21.279 15.8911 21.24 15.8053 21.2275 15.7137C21.215 15.6221 21.2295 15.5288 21.2692 15.4455C21.3028 15.3571 21.3622 15.281 21.4396 15.2274C21.517 15.1739 21.6088 15.1453 21.7027 15.1454C22.035 15.1384 22.3683 15.1454 22.7006 15.1454C25.0338 15.1454 27.3673 15.1454 29.7011 15.1454C29.7662 15.1426 29.8313 15.1526 29.8925 15.1751C29.9538 15.1976 30.0101 15.232 30.0582 15.2763C30.1063 15.3207 30.1452 15.3742 30.1728 15.4338C30.2004 15.4934 30.216 15.5578 30.2189 15.6235C30.2218 15.6892 30.2118 15.7548 30.1895 15.8165C30.1672 15.8783 30.1331 15.9351 30.089 15.9835C30.045 16.032 29.9919 16.0713 29.9329 16.0991C29.8738 16.1269 29.8099 16.1427 29.7447 16.1456C28.9561 16.1396 28.1684 16.1456 27.3798 16.1456L25.7351 16.1426Z" fill="white"/>
<path d="M27.2476 9.5228C27.2856 9.30048 27.3834 9.09294 27.5303 8.92273C28.0203 8.29466 28.6631 7.99763 29.4547 8.09164C29.8032 8.12246 30.1377 8.24403 30.4255 8.44442C30.7133 8.64481 30.9445 8.91716 31.0965 9.23477C31.1768 9.39078 31.2403 9.5548 31.1689 9.73482C31.1357 9.82786 31.0766 9.90927 30.9986 9.96924C30.9207 10.0292 30.8272 10.0652 30.7294 10.0729C30.6292 10.0794 30.5294 10.054 30.4442 10.0001C30.3591 9.94626 30.293 9.86673 30.2553 9.77282C30.2005 9.62911 30.1161 9.49874 30.0077 9.3903C29.8993 9.28187 29.7693 9.19784 29.6263 9.14376C29.493 9.08843 29.35 9.0603 29.2058 9.06101C29.0616 9.06172 28.9189 9.09125 28.7861 9.14789C28.6533 9.20452 28.5329 9.28715 28.4319 9.39098C28.331 9.49482 28.2514 9.6178 28.1979 9.75282C28.1562 9.85975 28.0797 9.94919 27.9809 10.0064C27.8821 10.0637 27.7669 10.0854 27.6543 10.0679C27.4122 10.0269 27.2476 9.82483 27.2476 9.5228Z" fill="white"/>
<path d="M24.1727 9.53186C24.1658 9.8319 24.0031 10.0219 23.7571 10.0709C23.6495 10.0862 23.5399 10.0661 23.4445 10.0137C23.3491 9.9613 23.2729 9.87932 23.2273 9.77989C22.9903 9.25884 22.5915 9.01581 22.029 9.08682C21.8465 9.10288 21.6721 9.16987 21.5253 9.28027C21.3785 9.39068 21.265 9.54013 21.1977 9.71188C21.1144 9.91191 20.9835 10.0519 20.7652 10.0749C20.6708 10.0877 20.5748 10.0712 20.4899 10.0276C20.405 9.98399 20.3353 9.91539 20.2901 9.8309C20.245 9.75488 20.2203 9.66836 20.2184 9.57983C20.2165 9.49129 20.2374 9.40376 20.2792 9.32584C20.4065 9.02419 20.6037 8.75775 20.8544 8.54891C21.105 8.34008 21.4017 8.19494 21.7195 8.12571C22.1342 8.02922 22.5681 8.06091 22.9646 8.21665C23.3611 8.37239 23.7019 8.64495 23.9426 8.99881C24.0636 9.17283 24.1727 9.36285 24.1727 9.53186Z" fill="white"/>
<path d="M45.9405 2.96353C44.0435 1.6838 41.8115 1.00009 39.5274 1L28.0002 12.5533C27.9884 14.8508 28.6533 17.1007 29.9116 19.0181C31.17 20.9356 32.9656 22.4346 35.0717 23.3238C37.1779 24.2131 39.499 24.4521 41.7406 24.0102C43.9821 23.5683 46.0419 22.4656 47.6595 20.8433C49.2769 19.2211 50.3794 17.1523 50.8284 14.8995C51.2774 12.6467 51.053 10.3102 50.1834 8.18566C49.3137 6.06106 47.8375 4.24325 45.9405 2.96353ZM39.5271 1C36.4774 0.99917 33.5532 2.21616 31.3936 4.38211C29.2343 6.5478 28.0151 9.48581 28.0002 12.553L39.5271 1Z" fill="#4DC38B" stroke="white" stroke-width="2"/>
<path d="M39.4689 17.1597C38.2309 17.1457 37.0594 16.7007 36.0307 15.8596C35.7069 15.5929 35.4098 15.2948 35.1439 14.9695C35.0998 14.9195 35.0661 14.8612 35.0448 14.7979C35.0235 14.7346 35.0151 14.6676 35.0199 14.601C35.0247 14.5343 35.0427 14.4693 35.0728 14.4097C35.103 14.3502 35.1447 14.2974 35.1954 14.2544C35.2963 14.1708 35.4257 14.1306 35.5557 14.1426C35.6857 14.1546 35.8057 14.2178 35.8898 14.3184C36.3041 14.8281 36.8086 15.2557 37.3778 15.5795C38.1869 16.0475 39.1241 16.2397 40.0502 16.1276C41.2277 15.9866 42.189 15.4275 42.9707 14.5334C43.0302 14.4664 43.0857 14.3964 43.1433 14.3274C43.2245 14.2238 43.3432 14.1568 43.4733 14.141C43.6034 14.1253 43.7344 14.1621 43.8376 14.2434C43.9395 14.3262 44.0049 14.4462 44.0194 14.5774C44.0338 14.7085 43.9963 14.8401 43.915 14.9435C43.3217 15.7135 42.5465 16.3214 41.6602 16.7117C40.9683 17.0118 40.2222 17.1643 39.4689 17.1597Z" fill="white"/>
<path d="M42.9346 8.05872C43.8413 8.11672 44.491 8.46776 44.8878 9.22984C44.9692 9.38586 45.0346 9.54988 44.9652 9.7349C44.9326 9.82995 44.873 9.91323 44.7938 9.9744C44.7146 10.0356 44.6193 10.0719 44.5198 10.0789C44.4199 10.0846 44.3208 10.0588 44.2361 10.005C44.1515 9.95124 44.0856 9.8722 44.0476 9.7789C43.9864 9.61889 43.8884 9.4758 43.7616 9.36141C43.6349 9.24701 43.483 9.16456 43.3185 9.12083C43.0588 9.04199 42.7793 9.06345 42.5345 9.18104C42.2897 9.29864 42.0971 9.50393 41.9942 9.7569C41.9596 9.85156 41.8974 9.93345 41.8158 9.99182C41.7342 10.0502 41.6369 10.0823 41.5369 10.0839C41.4369 10.0846 41.3391 10.0547 41.2563 9.99832C41.1734 9.94193 41.1094 9.86161 41.0726 9.76791C41.0463 9.69462 41.0353 9.61664 41.0402 9.53885C41.0452 9.46106 41.066 9.38515 41.1014 9.31586C41.2157 9.04657 41.3871 8.80577 41.6036 8.61037C41.82 8.41496 42.0762 8.26968 42.3543 8.18473C42.545 8.13077 42.7388 8.08869 42.9346 8.05872Z" fill="white"/>
<path d="M35.958 8.05966C36.8508 8.12267 37.5135 8.49071 37.8983 9.2968C37.9449 9.37814 37.9694 9.4704 37.9694 9.56433C37.9694 9.65825 37.9449 9.75051 37.8983 9.83185C37.8542 9.913 37.7875 9.97941 37.7064 10.0229C37.6254 10.0664 37.5335 10.0852 37.442 10.0769C37.3505 10.0727 37.2622 10.0422 37.1873 9.98909C37.1124 9.93593 37.0542 9.86228 37.0194 9.77685C36.7883 9.25779 36.3251 8.99276 35.7755 9.09477C35.601 9.11932 35.4362 9.19026 35.298 9.30029C35.1597 9.41032 35.053 9.55547 34.9888 9.72084C34.9593 9.81732 34.9021 9.90281 34.8244 9.96653C34.7467 10.0302 34.6521 10.0693 34.5524 10.0789C34.4578 10.09 34.3622 10.0721 34.2779 10.0275C34.1936 9.9829 34.1247 9.91365 34.0802 9.82885C34.037 9.75551 34.0132 9.67227 34.0109 9.58702C34.0087 9.50177 34.0281 9.41736 34.0673 9.3418C34.1918 9.04159 34.386 8.77591 34.6336 8.56707C34.8811 8.35824 35.1747 8.21235 35.4898 8.14167C35.6535 8.09567 35.8231 8.08166 35.958 8.05966Z" fill="white"/>
</svg>
